<?xml version="1.0" standalone="no"?>
<!DOCTYPE svg PUBLIC "-//W3C//DTD SVG 20010904//EN"
 "http://www.w3.org/TR/2001/REC-SVG-20010904/DTD/svg10.dtd">
<svg version="1.0" xmlns="http://www.w3.org/2000/svg"
 width="133.000000pt" height="133.000000pt" viewBox="0 0 133.000000 133.000000"
 preserveAspectRatio="xMidYMid meet">

<g transform="translate(0.000000,133.000000) scale(0.100000,-0.100000)"
fill="#000000" stroke="none">
<path d="M580 1006 c0 -6 14 -52 31 -103 l32 -92 93 47 c52 26 94 49 94 52 0
12 -62 41 -154 73 -56 20 -96 29 -96 23z"/>
<path d="M1090 955 c-180 -56 -234 -78 -442 -182 l-238 -118 -57 56 c-32 31
-92 79 -133 106 -103 68 -105 69 -95 52 5 -8 41 -66 80 -130 67 -107 73 -123
88 -208 8 -51 18 -95 20 -98 3 -2 19 3 36 11 30 16 34 26 55 118 l6 27 63 -24
c189 -71 350 -135 355 -139 3 -3 -7 -24 -22 -47 -15 -22 -26 -42 -24 -44 2 -1
37 11 79 27 63 25 79 36 92 63 l16 34 -159 63 c-87 35 -156 66 -152 69 4 4 68
20 142 35 l135 28 158 143 c86 79 162 143 168 143 6 0 9 -23 7 -57 l-3 -58
-66 -35 c-59 -30 -70 -40 -93 -88 -15 -30 -25 -56 -23 -58 2 -3 20 13 40 35
32 36 94 78 102 69 1 -2 -15 -43 -36 -92 -21 -49 -37 -91 -36 -93 2 -1 36 50
76 114 l72 116 -3 113 -3 112 -205 -63z"/>
</g>
</svg>
